<svg id="Capa_1" enable-background="new 0 0 512 512" height="64" viewBox="0 0 512 512" width="64" xmlns="http://www.w3.org/2000/svg" style="width: 1em; height: 1em; vertical-align: middle; fill: currentcolor; overflow: hidden; font-size: 64px;"><g><g fill="#474f54"><path d="m125.526 67.182c-4.174-20.962-22.734-36.182-44.121-36.182h-81.405v30h81.405c7.134 0 13.315 5.068 14.707 12.056l15.592 77.944 18.296 30 12.293-30z"></path><path d="m151 421c-16.538 0-30-13.462-30-30 0-9.36 4.453-16.948 12.202-20.83l17.798-9.17 30-17.294-30-15.974-31.216 15.602c-18.017 9.009-28.784 26.836-28.784 47.666 0 33.091 26.909 60 60 60h45v-30z"></path><path d="m286 421h-60v30h60 60v-30z"></path></g><path d="m286 421h60v30h-60z" fill="#32393f"></path><path d="m196 481c-24.814 0-45-20.186-45-45s20.186-45 45-45 45 20.186 45 45-20.186 45-45 45z" fill="#575f64"></path><path d="m196 421c-8.276 0-15 6.724-15 15s6.724 15 15 15 15-6.724 15-15-6.724-15-15-15z" fill="#fff5f5"></path><path d="m376 481c-24.814 0-45-20.186-45-45s20.186-45 45-45 45 20.186 45 45-20.186 45-45 45z" fill="#474f54"></path><path d="m376 421c-8.276 0-15 6.724-15 15s6.724 15 15 15 15-6.724 15-15-6.724-15-15-15z" fill="#efe2dd"></path><path d="m286 151h-174.296l39.296 210h135 130.811l70.004-210z" fill="#6aa9ff"></path><path d="m486.815 151h-200.815v210h130.811z" fill="#2682ff"></path><path d="m406 61c-57.891 0-105 47.109-105 105s47.109 105 105 105 106-47.109 106-105-48.109-105-106-105z" fill="#97de3d"></path><path d="m512 166c0-57.891-48.109-105-106-105v210c57.891 0 106-47.109 106-105z" fill="#59c36a"></path><path d="m451 151v30h-30v30h-30v-30h-30v-30h30v-30h30v30z" fill="#fff5f5"></path><path d="m451 151v30h-30v30h-15v-90h15v30z" fill="#efe2dd"></path></g></svg>